<?xml version="1.0" encoding="utf-8"?>
<!-- Generator: Adobe Illustrator 27.1.1, SVG Export Plug-In . SVG Version: 6.00 Build 0)  -->
<svg version="1.1" id="图层_1" xmlns="http://www.w3.org/2000/svg" xmlns:xlink="http://www.w3.org/1999/xlink" x="0px" y="0px"
	 viewBox="0 0 256 256" style="enable-background:new 0 0 256 256;" xml:space="preserve">
<style type="text/css">
	.st0{fill:#35393F;}
	.st1{fill:#FFFFFF;}
</style>
<path class="st0" d="M60,0h136c33.1,0,60,26.9,60,60v136c0,33.1-26.9,60-60,60H60c-33.1,0-60-26.9-60-60V60C0,26.9,26.9,0,60,0z"/>
<g>
	<path class="st1" d="M222.9,154.7c0,16.5-13.5,30-30,30l-123.9,0c-16.5,0-30-13.5-30-30l0-54.4c0-16.5,13.5-30,30-30l123.9,0
		c16.5,0,30,13.5,30,30L222.9,154.7z"/>
</g>
<g>
	<polygon class="st0" points="131,40.2 86.7,104.1 175.3,104.1 	"/>
	<polygon class="st0" points="131,214.8 175.3,150.9 86.7,150.9 	"/>
	<path class="st0" d="M62.3,105l0,27c0,5.3,3.4,10,8.5,11.7l56.4,18.4c2.5,0.8,5.2,0.8,7.6,0l56.4-18.4c5.1-1.7,8.5-6.4,8.5-11.7
		l0-27c0-5.3-3.4-10-8.5-11.7l-56.4-18.4c-2.5-0.8-5.2-0.8-7.6,0L70.8,93.3C65.8,95,62.3,99.7,62.3,105z"/>
	<path class="st0" d="M199.7,148.5v-27c0-5.3-3.4-10-8.5-11.7l-56.4-18.4c-2.5-0.8-5.2-0.8-7.6,0l-56.4,18.4
		c-5.1,1.7-8.5,6.4-8.5,11.7l0,27c0,5.3,3.4,10,8.5,11.7l56.4,18.4c2.5,0.8,5.2,0.8,7.6,0l56.4-18.4
		C196.2,158.6,199.7,153.9,199.7,148.5z"/>
</g>
<rect x="100.7" y="121" class="st1" width="60.7" height="12.9"/>
</svg>
